TITLE "Fuzzy Warbles 6"
PERFORMER "Andy Partridge"
CATALOG 4988013767409
REM DATE "2004"
REM DISCID 080E9713
FILE "Fuzzy Warbles 6.flac" WAVE
  TRACK 01 AUDIO
    TITLE "The Laugh Track"
    ISRC GBFHR0400127
    INDEX 01 00:00:00
  TRACK 02 AUDIO
    TITLE "The Stinking Rich Song"
    ISRC GBFHR0400128
    INDEX 01 02:46:21
  TRACK 03 AUDIO
    TITLE "I Can't Tell What Truth Is Anymore"
    ISRC GBFHR0400129
    INDEX 01 05:40:21
  TRACK 04 AUDIO
    TITLE "Candle Dance"
    ISRC GBFHR0400130
    INDEX 00 08:26:06
    INDEX 01 08:26:14
  TRACK 05 AUDIO
    TITLE "The Tiny Circus of Life"
    ISRC GBFHR0400131
    INDEX 01 10:25:12
  TRACK 06 AUDIO
    TITLE "The Man Who Sailed Around His Soul"
    ISRC GBFHR0400132
    INDEX 00 13:34:23
    INDEX 01 13:35:55
  TRACK 07 AUDIO
    TITLE "In My Hand"
    ISRC GBFHR0400133
    INDEX 01 16:33:19
  TRACK 08 AUDIO
    TITLE "Difficult Age"
    ISRC GBFHR0400134
    INDEX 01 19:23:09
  TRACK 09 AUDIO
    TITLE "Pink Thing"
    ISRC GBFHR0400135
    INDEX 01 23:06:38
  TRACK 10 AUDIO
    TITLE "Shaking Skin House"
    ISRC GBFHR0400136
    INDEX 01 26:23:46
  TRACK 11 AUDIO
    TITLE "Bike Ride To The Moon"
    ISRC GBFHR0400137
    INDEX 01 30:48:33
  TRACK 12 AUDIO
    TITLE "My Love Explodes"
    ISRC GBFHR0400138
    INDEX 01 32:19:22
  TRACK 13 AUDIO
    TITLE "Omnibus"
    ISRC GBFHR0400139
    INDEX 01 34:15:11
  TRACK 14 AUDIO
    TITLE "Across the Antheap (Skylarking Demo)"
    ISRC GBFHR0400140
    INDEX 00 37:27:46
    INDEX 01 37:28:66
  TRACK 15 AUDIO
    TITLE "Across this Antheap (Oranges and Lemons Demo)"
    ISRC GBFHR0400141
    INDEX 00 40:16:60
    INDEX 01 40:18:26
  TRACK 16 AUDIO
    TITLE "Human Alchemy"
    ISRC GBFHR0400142
    INDEX 01 45:54:45
  TRACK 17 AUDIO
    TITLE "Moonlit Drive"
    ISRC GBFHR0400143
    INDEX 01 51:52:66
  TRACK 18 AUDIO
    TITLE "Prince of Orange"
    ISRC GBFHR0400144
    INDEX 00 55:03:57
    INDEX 01 55:05:53
  TRACK 19 AUDIO
    TITLE "End of the Pier"
    ISRC GBFHR0400145
    INDEX 01 57:59:46
